<?xml version="1.0" encoding="UTF-8" standalone="no"?>
<!DOCTYPE svg PUBLIC "-//W3C//DTD SVG 1.1//EN" "http://www.w3.org/Graphics/SVG/1.1/DTD/svg11.dtd">
<!-- Created with Vectornator (http://vectornator.io/) -->
<svg height="2034.0pt" stroke-miterlimit="10" style="fill-rule:nonzero;clip-rule:evenodd;stroke-linecap:round;stroke-linejoin:round;" version="1.1" viewBox="0 0 2500 2034" width="2500.0pt" xml:space="preserve" xmlns="http://www.w3.org/2000/svg" xmlns:vectornator="http://vectornator.io" xmlns:xlink="http://www.w3.org/1999/xlink">
<defs/>
<clipPath id="ArtboardFrame">
<rect height="2034" width="2500" x="0" y="0"/>
</clipPath>
<g clip-path="url(#ArtboardFrame)" id="Untitled" vectornator:layerName="Untitled">
<path d="M2492.64 1132.66C2477.97 1029.45 2442.22 931.575 2386.35 841.778C2337.63 763.41 2275.11 693.711 2200.49 634.471L2200.69 634.285L1416.99 32.3522C1416.42 31.8547 1415.83 31.3861 1415.22 30.9481C1389.16 10.9879 1353.89 0.00489221 1315.92 0.00489221C1277.91 0.00489221 1241.25 11.0124 1212.76 31.0117C1182.12 52.4151 1164.6 80.8144 1163.38 111.043C1162.26 139.247 1175.71 166.384 1201.36 187.538C1251.8 227.336 1302.13 268 1352.52 308.713C1401.43 348.242 1451.82 388.95 1501.97 428.582L542.058 427.931C432.282 427.931 357.534 479.481 342.157 565.784C335.401 603.586 347.324 645.15 373.976 676.984C402.253 710.731 443.309 729.345 489.574 729.345L562.752 729.394C663.845 729.394 765.383 729.145 866.783 728.9L963.483 728.675L92.278 1373.21L88.8192 1375.74C40.1564 1413.04 8.29834 1465.33 1.42478 1519.2C-3.78542 1560.01 5.73482 1597.31 28.9679 1627.09C56.6578 1662.6 99.8903 1682.13 150.711 1682.13C200.636 1682.13 251.578 1663.21 294.219 1628.76L764.683 1243.75C762.672 1262.55 760.231 1290.13 760.51 1310.15C761.038 1341.85 771.214 1405.44 787.324 1457.08C820.611 1563.19 876.68 1660.27 953.967 1745.54C1034.39 1834.24 1132.33 1904.58 1245.05 1954.54C1364.23 2007.25 1492.34 2034 1625.84 2034L1627.08 2034C1761.01 2033.68 1889.53 2006.5 2009.09 1953.19C2122 1902.63 2219.9 1832.02 2300.02 1743.32C2377.2 1657.63 2433.2 1560.38 2466.42 1454.36C2482.85 1401.87 2493.38 1347.72 2497.81 1292.9C2501.91 1239.92 2500.15 1186 2492.64 1132.66ZM1635.6 1641.25C1341.38 1641.25 1102.79 1427.82 1102.79 1164.52C1102.79 901.253 1341.39 687.82 1635.6 687.82C1929.83 687.82 2168.4 901.253 2168.4 1164.52C2168.41 1427.82 1929.83 1641.25 1635.6 1641.25ZM1942.87 1122.63C1947.21 1201.21 1915.82 1274.18 1860.7 1328.2C1804.63 1383.22 1724.62 1417.79 1635.15 1417.79C1545.72 1417.79 1465.7 1383.22 1409.61 1328.2C1354.52 1274.18 1323.19 1201.22 1327.51 1122.69C1331.73 1046.36 1368.97 978.98 1425.05 931.271C1480.2 884.36 1554.26 855.741 1635.15 855.741C1716.05 855.741 1790.09 884.37 1845.24 931.271C1901.35 978.98 1938.6 1046.31 1942.87 1122.63Z" fill="#7f5af0" fill-rule="nonzero" opacity="1" stroke="none" vectornator:layerName="path"/>
</g>
</svg>
