<?xml version="1.0" encoding="UTF-8" standalone="no"?>
<!DOCTYPE svg PUBLIC "-//W3C//DTD SVG 1.1//EN" "http://www.w3.org/Graphics/SVG/1.1/DTD/svg11.dtd">
<!-- Created with Vectornator (http://vectornator.io/) -->
<svg height="2500.0pt" stroke-miterlimit="10" style="fill-rule:nonzero;clip-rule:evenodd;stroke-linecap:round;stroke-linejoin:round;" version="1.1" viewBox="0 0 2222 2500" width="2222.0pt" xml:space="preserve" xmlns="http://www.w3.org/2000/svg" xmlns:vectornator="http://vectornator.io" xmlns:xlink="http://www.w3.org/1999/xlink">
<defs/>
<g id="Untitled" vectornator:layerName="Untitled">
<path d="M2218.26 735.468C2218.24 693.545 2209.28 656.5 2191.14 624.707C2173.33 593.442 2146.66 567.238 2110.88 546.52C1815.56 376.233 1519.94 206.467 1224.71 36.0068C1145.12-9.94344 1067.95-8.26826 988.946 38.3417C871.397 107.666 282.871 444.846 107.498 546.425C35.2742 588.235 0.130195 652.221 0.112836 735.39C0 1077.85 0.112836 1420.3 0 1762.76C0.0173594 1803.76 8.60157 1840.09 25.9349 1871.4C43.7543 1903.62 70.8002 1930.54 107.402 1951.73C282.784 2053.31 871.389 2390.46 988.912 2459.8C1067.95 2506.44 1145.12 2508.1 1224.74 2462.14C1519.98 2291.67 1815.61 2121.91 2110.98 1951.62C2147.58 1930.44 2174.63 1903.5 2192.45 1871.32C2209.75 1840 2218.35 1803.68 2218.37 1762.67C2218.37 1762.67 2218.37 1077.93 2218.26 735.468" fill="#7f5af0" fill-rule="nonzero" opacity="1" stroke="none" vectornator:layerName="path"/>
<path d="M1112.58 1245.74L25.9349 1871.4C43.7543 1903.62 70.8002 1930.54 107.402 1951.73C282.784 2053.31 871.389 2390.46 988.912 2459.8C1067.95 2506.44 1145.12 2508.1 1224.74 2462.14C1519.98 2291.67 1815.61 2121.91 2110.98 1951.62C2147.58 1930.44 2174.63 1903.5 2192.45 1871.32L1112.58 1245.74" fill="#724aef" fill-opacity="0.859531" fill-rule="nonzero" opacity="1" stroke="none" vectornator:layerName="path"/>
<path d="M790.728 1431.07C853.96 1541.46 972.828 1615.91 1109.19 1615.91C1246.39 1615.91 1365.93 1540.51 1428.84 1428.94L1112.58 1245.74L790.728 1431.07" fill="#7f5af0" fill-rule="nonzero" opacity="1" stroke="none" vectornator:layerName="path"/>
<path d="M2218.26 735.468C2218.24 693.545 2209.28 656.5 2191.14 624.707L1112.58 1245.74L2192.45 1871.32C2209.75 1840 2218.35 1803.68 2218.37 1762.67C2218.37 1762.67 2218.37 1077.93 2218.26 735.468" fill="#8a69ef" fill-opacity="0.9" fill-rule="nonzero" opacity="1" stroke="none" vectornator:layerName="path"/>
<path d="M2158.88 1290.46L2074.5 1290.46L2074.5 1374.86L1990.1 1374.86L1990.1 1290.46L1905.72 1290.46L1905.72 1206.08L1990.1 1206.08L1990.1 1121.7L2074.5 1121.7L2074.5 1206.08L2158.88 1206.08L2158.88 1290.46M1850.97 1290.46L1766.59 1290.46L1766.59 1374.86L1682.21 1374.86L1682.21 1290.46L1597.83 1290.46L1597.83 1206.08L1682.21 1206.08L1682.21 1121.7L1766.59 1121.7L1766.59 1206.08L1850.97 1206.08L1850.97 1290.46" fill="#333333" fill-rule="nonzero" opacity="1" stroke="none" vectornator:layerName="path"/>
<path d="M1428.84 1428.94C1365.93 1540.51 1246.39 1615.91 1109.19 1615.91C972.828 1615.91 853.96 1541.46 790.728 1431.07C758.964 1375.68 742.282 1312.92 742.348 1249.07C742.348 1046.48 906.593 882.242 1109.19 882.242C1244.67 882.242 1362.91 955.767 1426.45 1065.03L1747.09 880.393C1619.65 660.398 1381.71 512.391 1109.19 512.391C702.317 512.391 372.497 842.22 372.497 1249.07C372.497 1382.55 408.006 1507.72 470.066 1615.68C597.189 1836.84 835.802 1985.76 1109.19 1985.76C1383.07 1985.76 1622.06 1836.24 1749 1614.43L1428.84 1428.94" fill="#333333" fill-rule="nonzero" opacity="1" stroke="none" vectornator:layerName="path"/>
</g>
</svg>
