<?xml version="1.0" encoding="UTF-8" standalone="no"?>
<!DOCTYPE svg PUBLIC "-//W3C//DTD SVG 1.1//EN" "http://www.w3.org/Graphics/SVG/1.1/DTD/svg11.dtd">
<!-- Created with Vectornator (http://vectornator.io/) -->
<svg height="2500.0pt" stroke-miterlimit="10" style="fill-rule:nonzero;clip-rule:evenodd;stroke-linecap:round;stroke-linejoin:round;" version="1.1" viewBox="0 0 2183 2500" width="2183.0pt" xml:space="preserve" xmlns="http://www.w3.org/2000/svg" xmlns:vectornator="http://vectornator.io" xmlns:xlink="http://www.w3.org/1999/xlink">
<defs/>
<g id="Untitled" vectornator:layerName="Untitled">
<path d="M182.791 2238.11L0 4.19359L2183 8.68282L1989.72 2238.11L1099.74 2495.81L182.791 2238.11Z" fill="#7f5af0" fill-rule="nonzero" opacity="1" stroke="none" vectornator:layerName="path"/>
<path d="M1099.74 2280.06L1099.74 216.948L1998.71 219.941L1838.4 2065.81L1099.74 2280.06Z" fill="#6a3ef1" fill-rule="nonzero" opacity="1" stroke="none" vectornator:layerName="path"/>
<path d="M1775.47 480.651L392.553 480.651L430.016 750.322L1086.25 750.322L440.508 1027.51L477.954 1288.2L1429.37 1288.2L1394.9 1652.27L1072.77 1715.21L780.616 1640.3L758.135 1433.53L489.943 1433.53L525.892 1863.55L1101.24 2023.86L1652.62 1848.56L1723.04 1008.02L1140.18 1008.02L1775.45 744.336L1775.47 480.651Z" fill="#333333" fill-rule="nonzero" opacity="1" stroke="none" vectornator:layerName="path"/>
</g>
</svg>
