<?xml version="1.0" encoding="UTF-8" standalone="no"?>
<!DOCTYPE svg PUBLIC "-//W3C//DTD SVG 1.1//EN" "http://www.w3.org/Graphics/SVG/1.1/DTD/svg11.dtd">
<!-- Created with Vectornator (http://vectornator.io/) -->
<svg height="2448.0pt" stroke-miterlimit="10" style="fill-rule:nonzero;clip-rule:evenodd;stroke-linecap:round;stroke-linejoin:round;" version="1.1" viewBox="0 0 2500 2448" width="2500.0pt" xml:space="preserve" xmlns="http://www.w3.org/2000/svg" xmlns:vectornator="http://vectornator.io" xmlns:xlink="http://www.w3.org/1999/xlink">
<defs/>
<g id="Untitled" vectornator:layerName="Untitled">
<path d="M0 0.0411776L2500 0.0411776L2500 2447.96L0 2447.96L0 0.0411776Z" fill="#7f5af0" fill-rule="nonzero" opacity="1" stroke="none" vectornator:layerName="path"/>
<path class="logo-test" d="M911.989 1246.24L1133.58 1246.24L1022.79 816.541L911.989 1246.24ZM189.138 191.719L189.138 2257.49L2314.03 2257.49L2314.03 191.719L189.138 191.719ZM1255.2 1717.37L1174.12 1438.12L874.148 1438.12L793.072 1717.37L587.684 1717.37L876.85 730.065L876.85 621.967L1152.5 621.967L1482.2 1717.37C1482.2 1717.37 1255.2 1717.37 1255.2 1717.37ZM1801.11 1717.37L1579.51 1717.37L1579.51 884.111L1801.11 884.111L1801.11 1717.37ZM1691.65 784.12C1628.22 784.12 1576.78 733.3 1576.78 670.617C1576.78 607.929 1628.2 557.11 1691.65 557.11C1755.09 557.11 1806.51 607.929 1806.51 670.617C1806.51 733.3 1755.09 784.12 1691.65 784.12Z" fill="#333333" fill-rule="nonzero" opacity="1" stroke="none" vectornator:layerName="path"/>
</g>
</svg>
