<?xml version="1.0" encoding="UTF-8" standalone="no"?>
<!DOCTYPE svg PUBLIC "-//W3C//DTD SVG 1.1//EN" "http://www.w3.org/Graphics/SVG/1.1/DTD/svg11.dtd">
<!-- Created with Vectornator (http://vectornator.io/) -->
<svg height="51.22017634854769pt" stroke-miterlimit="10" style="fill-rule:nonzero;clip-rule:evenodd;stroke-linecap:round;stroke-linejoin:round;" version="1.1" viewBox="0 0 46.9372 51.2202" width="46.93724066390045pt" xml:space="preserve" xmlns="http://www.w3.org/2000/svg" xmlns:vectornator="http://vectornator.io" xmlns:xlink="http://www.w3.org/1999/xlink">
<defs/>
<g id="Untitled" vectornator:layerName="Untitled">
<path d="M17.4635 38.1719C17.4635 38.1719 15.6965 39.2469 18.6935 39.5549C22.2935 40.0149 24.2235 39.9389 28.2175 39.1709C28.2175 39.1709 29.2925 39.8609 30.7525 40.4009C21.7655 44.2409 10.3985 40.1709 17.4645 38.1739L17.4635 38.1719ZM16.3115 33.1799C16.3115 33.1799 14.3915 34.6399 17.3865 34.9469C21.3035 35.3309 24.3865 35.4069 29.6765 34.3329C29.6765 34.3329 30.3665 35.1009 31.5195 35.4849C20.6895 38.7109 8.55352 35.7919 16.3115 33.1809L16.3115 33.1799ZM37.5115 41.9359C37.5115 41.9359 38.8175 43.0109 36.0515 43.8559C30.9055 45.3919 14.4685 45.8529 9.85952 43.8559C8.24652 43.1659 11.3195 42.1559 12.3175 42.0129C13.3175 41.7829 13.8535 41.7829 13.8535 41.7829C12.0875 40.5529 2.10152 44.3179 8.78352 45.3829C27.1405 48.3779 42.2715 44.0769 37.5095 41.9269L37.5115 41.9359ZM18.3075 27.9569C18.3075 27.9569 9.93552 29.9539 15.3115 30.6449C17.6155 30.9519 22.1475 30.8749 26.3715 30.5679C29.8275 30.2609 33.2845 29.6459 33.2845 29.6459C33.2845 29.6459 32.0545 30.1839 31.2105 30.7209C22.6845 32.9479 6.32452 31.9509 11.0105 29.6459C15.0045 27.7259 18.3075 27.9459 18.3075 27.9459L18.3075 27.9569ZM33.2855 36.3289C41.8875 31.8739 37.8935 27.5729 35.1285 28.1109C34.4385 28.2649 34.1285 28.4179 34.1285 28.4179C34.1285 28.4179 34.3585 27.9579 34.8965 27.8039C40.3495 25.8839 44.6515 33.5639 33.1295 36.5599C33.1295 36.5599 33.2065 36.4829 33.2835 36.3299L33.2855 36.3289ZM19.1535 48.4639C27.4485 49.0019 40.1235 48.1569 40.4295 44.2399C40.4295 44.2399 39.8155 45.7759 33.5935 46.9279C26.5275 48.2339 17.7715 48.0799 12.6235 47.2349C12.6235 47.2349 13.6985 48.1569 19.1535 48.4649L19.1535 48.4639Z" fill="#545454" fill-rule="nonzero" opacity="1" stroke="none" vectornator:layerName="path"/>
<path d="M28.0625 2.60992C28.0625 2.60992 32.8245 7.44992 23.5305 14.7459C16.0805 20.6599 21.8305 24.0399 23.5305 27.8799C19.1525 23.9629 16.0035 20.5069 18.1535 17.2799C21.3035 12.5179 29.9815 10.2139 28.0615 2.60992L28.0625 2.60992ZM25.6045 24.6539C27.8315 27.1889 24.9895 29.4939 24.9895 29.4939C24.9895 29.4939 30.6735 26.5739 28.0615 22.9639C25.6815 19.5079 23.8375 17.8179 33.8215 12.0569C33.8215 12.0569 18.0755 15.9739 25.6035 24.6529L25.6045 24.6539Z" fill="#7f5af0" fill-rule="nonzero" opacity="1" stroke="none" vectornator:layerName="path"/>
</g>
</svg>
