<?xml version="1.0" encoding="UTF-8" standalone="no"?>
<!DOCTYPE svg PUBLIC "-//W3C//DTD SVG 1.1//EN" "http://www.w3.org/Graphics/SVG/1.1/DTD/svg11.dtd">
<!-- Created with Vectornator (http://vectornator.io/) -->
<svg height="2500.0pt" stroke-miterlimit="10" style="fill-rule:nonzero;clip-rule:evenodd;stroke-linecap:round;stroke-linejoin:round;" version="1.1" viewBox="0 0 2183 2500" width="2183.0pt" xml:space="preserve" xmlns="http://www.w3.org/2000/svg" xmlns:vectornator="http://vectornator.io" xmlns:xlink="http://www.w3.org/1999/xlink">
<defs/>
<g id="Untitled" vectornator:layerName="Untitled">
<path d="M182.791 2238.12L0 4.17598L2183 8.66522L1989.72 2238.12L1099.74 2495.82L182.791 2238.12Z" fill="#7f5af0" fill-rule="nonzero" opacity="1" stroke="none" vectornator:layerName="path"/>
<path d="M1099.74 2280.08L1099.74 216.93L1998.71 219.923L1838.4 2065.81L1099.74 2280.08Z" fill="#6a3ef1" fill-rule="nonzero" opacity="1" stroke="none" vectornator:layerName="path"/>
<path d="M1003.48 461.902L765.81 461.902L765.81 1835.08L580.96 1799.87L580.96 1615.02L360.899 1579.81L360.899 1993.52L1003.48 2160.77L1003.48 461.902ZM1181.76 461.902L1839.71 461.902L1795.69 725.094L1432.93 725.094L1432.93 1156.99L1795.69 1156.99L1751.68 2028.73L1181.76 2160.77L1181.76 1887.89L1566.83 1755.86L1589.07 1394.96L1181.76 1453.93L1181.76 461.902Z" fill="#333333" fill-rule="nonzero" opacity="1" stroke="none" vectornator:layerName="path"/>
</g>
</svg>
