<?xml version="1.0" encoding="UTF-8" standalone="no"?>
<!DOCTYPE svg PUBLIC "-//W3C//DTD SVG 1.1//EN" "http://www.w3.org/Graphics/SVG/1.1/DTD/svg11.dtd">
<!-- Created with Vectornator (http://vectornator.io/) -->
<svg height="122.19428838118941pt" stroke-miterlimit="10" style="fill-rule:nonzero;clip-rule:evenodd;stroke-linecap:round;stroke-linejoin:round;" version="1.1" viewBox="0 0 123.322 122.194" width="123.32224710656641pt" xml:space="preserve" xmlns="http://www.w3.org/2000/svg" xmlns:vectornator="http://vectornator.io" xmlns:xlink="http://www.w3.org/1999/xlink">
<defs>
<radialGradient cx="0" cy="0" gradientTransform="matrix(5.07872e-07 -6.96732 30.6243 1.10095e-05 61.4081 134.098)" gradientUnits="userSpaceOnUse" id="RadialGradient" r="1">
<stop offset="0" stop-color="#b8b8b8" stop-opacity="0.498039"/>
<stop offset="1" stop-color="#7f7f7f" stop-opacity="0"/>
</radialGradient>
</defs>
<clipPath id="ArtboardFrame">
<rect height="122.194" width="123.322" x="0" y="0"/>
</clipPath>
<g clip-path="url(#ArtboardFrame)" id="g2303" vectornator:layerName="g2303">
<path d="M60.5102 6.39797C55.9265 6.41927 51.5492 6.81019 47.6977 7.49172C36.3514 9.49623 34.2914 13.6918 34.2914 21.4292L34.2914 31.648L61.1039 31.648L61.1039 35.0542L34.2914 35.0542L24.2289 35.0542C16.4364 35.0542 9.61315 39.7379 7.47891 48.648C5.01709 58.8609 4.90789 65.234 7.47891 75.898C9.38483 83.8358 13.9364 89.4917 21.7289 89.4917L30.9477 89.4917L30.9477 77.2417C30.9477 68.3918 38.6048 60.5855 47.6977 60.5855L74.4789 60.5855C81.9339 60.5855 87.8852 54.4473 87.8852 46.9605L87.8852 21.4292C87.8852 14.1629 81.7552 8.70445 74.4789 7.49172C69.8729 6.725 65.0938 6.37667 60.5102 6.39797ZM46.0102 14.6167C48.7797 14.6167 51.0414 16.9154 51.0414 19.7417C51.0414 22.5581 48.7797 24.8355 46.0102 24.8355C43.2307 24.8355 40.9789 22.5581 40.9789 19.7417C40.9789 16.9154 43.2307 14.6167 46.0102 14.6167Z" fill="#7f5af0" fill-rule="nonzero" opacity="1" stroke="none" vectornator:layerName="path"/>
<path d="M91.2289 35.0542L91.2289 46.9605C91.2289 56.1912 83.403 63.9605 74.4789 63.9605L47.6977 63.9605C40.3618 63.9605 34.2914 70.239 34.2914 77.5855L34.2914 103.117C34.2914 110.383 40.61 114.657 47.6977 116.742C56.185 119.237 64.3239 119.688 74.4789 116.742C81.2291 114.787 87.8852 110.854 87.8852 103.117L87.8852 92.898L61.1039 92.898L61.1039 89.4917L87.8852 89.4917L101.291 89.4917C109.084 89.4917 111.988 84.0563 114.698 75.898C117.497 67.4991 117.378 59.4222 114.698 48.648C112.772 40.8905 109.094 35.0542 101.291 35.0542L91.2289 35.0542ZM76.1664 99.7105C78.9459 99.7105 81.1977 101.988 81.1977 104.804C81.1977 107.631 78.9459 109.929 76.1664 109.929C73.3969 109.929 71.1352 107.631 71.1352 104.804C71.1352 101.988 73.3969 99.7105 76.1664 99.7105Z" fill="#545454" fill-rule="nonzero" opacity="1" stroke="none" vectornator:layerName="path"/>
<path d="M463.554 26.9094L465.116 26.9094L465.116 17.1131L468.816 17.1131L468.816 15.9455L459.854 15.9455L459.854 17.1131L463.554 17.1131L463.554 26.9094M470.201 26.9094L471.536 26.9094L471.536 17.9624L474.432 26.9083L475.918 26.9083L478.936 17.9927L478.936 26.9094L480.392 26.9094L480.392 15.9455L478.466 15.9455L475.168 25.3383L472.355 15.9455L470.201 15.9455L470.201 26.9094" fill="#646464" fill-rule="nonzero" opacity="1" stroke="none" vectornator:layerName="path"/>
<path d="M97.3391 134.098C97.3391 137.946 81.2523 141.065 61.4081 141.065C41.564 141.065 25.4772 137.946 25.4772 134.098C25.4772 130.25 41.564 127.131 61.4081 127.131C81.2523 127.131 97.3391 130.25 97.3391 134.098Z" fill="url(#RadialGradient)" fill-rule="nonzero" opacity="0.44382" stroke="none" vectornator:layerName="path"/>
</g>
</svg>
